# xmcd
#
# Track frame offsets:
#	150
#	24305
#	44827
#	63242
#	82390
#	100437
#	115092
#	134940
#	153910
#	173152
#	193015
#
# Disc length: 2840 seconds
#
# Revision: 0
# Processed by: cddbd v1.5.2PL0 Copyright (c) Steve Scherf et al.
# Submitted via: audiograbber 1.83.01
#
DISCID=9f0b160b
DTITLE=Barry Manilow - 2:00 Am Paradise Cafe
DYEAR=1900
DGENRE=
TTITLE0=Paradise Cafe
TTITLE1=Where Have You Gone
TTITLE2=Say No More
TTITLE3=Blue
TTITLE4=When October Goes
TTITLE5=What Am I Doin' Here
TTITLE6=Good-Bye My Love
TTITLE7=Big City Blues
TTITLE8=When Love Is Gone
TTITLE9=I've Never Been So Low On Love
TTITLE10=Night Song
EXTD=
EXTT0=
EXTT1=
EXTT2=
EXTT3=
EXTT4=
EXTT5=
EXTT6=
EXTT7=
EXTT8=
EXTT9=
EXTT10=
PLAYORDER=
